<svg width="12" height="12" viewBox="0 0 12 12" fill="none" xmlns="http://www.w3.org/2000/svg">
<g clip-path="url(#clip0_22_11)">
<path d="M5.99999 11.9941C9.28232 11.9941 12 9.27195 12 5.99705C12 2.71631 9.2765 0 5.99411 0C2.71765 0 0 2.71631 0 5.99705C0 9.27195 2.72353 11.9941 5.99999 11.9941ZM4.94117 9.40126C4.68823 9.40126 4.49411 9.21897 4.49411 8.96617C4.49411 8.73103 4.68823 8.53697 4.94117 8.53697H5.68823V5.77363H5.04117C4.79412 5.77363 4.6 5.59137 4.6 5.33855C4.6 5.10338 4.79412 4.90935 5.04117 4.90935H6.18234C6.49411 4.90935 6.65882 5.13277 6.65882 5.46202V8.53697H7.40586C7.65884 8.53697 7.85294 8.73103 7.85294 8.96617C7.85294 9.21897 7.65884 9.40126 7.40586 9.40126H4.94117ZM5.94705 3.90985C5.50588 3.90985 5.15294 3.55707 5.15294 3.11023C5.15294 2.6634 5.50588 2.31063 5.94705 2.31063C6.38823 2.31063 6.7353 2.6634 6.7353 3.11023C6.7353 3.55707 6.38823 3.90985 5.94705 3.90985Z" fill="white" fill-opacity="0.4"/>
</g>
<defs>
<clipPath id="clip0_22_11">
<rect width="12" height="12" fill="white"/>
</clipPath>
</defs>
</svg>
