<svg width="201" height="107" viewBox="0 0 201 107" fill="none" xmlns="http://www.w3.org/2000/svg">
<path d="M26.8074 0C31.4914 0 35.7879 1.04348 39.7323 3.13043C43.6414 1.04348 47.9379 0 52.6219 0C56.2845 0 59.771 0.66087 63.0462 1.98261C66.2862 3.30435 69.1036 5.11304 71.428 7.4087C73.7523 9.70435 75.5836 12.487 76.9219 15.687C78.2602 18.9217 78.9645 22.3652 78.9645 25.9826C78.9645 29.6348 78.2602 33.0783 76.9219 36.2783C75.5836 39.513 73.7523 42.2609 71.428 44.5565C69.1036 46.8522 66.2862 48.6957 63.0462 50.0174C59.771 51.3391 56.2845 52 52.6219 52C48.114 52 43.8175 50.9565 39.8027 48.8696C35.7527 50.9565 31.4209 52 26.8074 52C23.1096 52 19.6231 51.3391 16.3831 50.0174C13.1079 48.6957 10.3257 46.8522 8.00132 44.5565C5.67697 42.2609 3.84566 39.513 2.5074 36.2783C1.16913 33.0783 0.5 29.6348 0.5 25.9826C0.5 21.113 1.62696 16.6957 3.91609 12.7304C6.20523 8.76522 9.3748 5.66957 13.3896 3.4087C17.4044 1.14783 21.877 0 26.8074 0ZM52.6219 44.8696C56.1788 44.8696 59.4188 44.0696 62.3419 42.4C65.2649 40.7652 67.5541 38.5043 69.2445 35.6174C70.8997 32.7304 71.7449 29.5304 71.7449 25.9826C71.7449 22.4696 70.8997 19.2696 69.2445 16.3826C67.5541 13.4957 65.2649 11.2348 62.3419 9.56522C59.4188 7.93043 56.1788 7.09565 52.6219 7.09565C48.2549 7.09565 44.5218 8.24348 41.3875 10.5391C43.571 12.3826 45.2614 14.6783 46.3884 17.3913C47.5153 20.1391 48.0788 23.0261 48.0788 26.0522C48.0788 29.0435 47.5153 31.9304 46.3884 34.6435C45.2614 37.3913 43.6414 39.7217 41.5284 41.6C44.7331 43.7913 48.431 44.8696 52.6219 44.8696ZM7.71958 25.9826C7.71958 29.5304 8.52958 32.7304 10.1848 35.6174C11.84 38.5043 14.1292 40.7652 17.0522 42.4C19.9753 44.0696 23.2153 44.8696 26.8074 44.8696C30.9279 44.8696 34.6257 43.7565 37.9362 41.5304C35.7527 39.6522 34.1327 37.3565 33.0057 34.6435C31.8788 31.9304 31.3505 29.0435 31.3505 26.0522C31.3505 23.0609 31.914 20.1739 33.0409 17.4261C34.1679 14.6783 35.8231 12.3826 38.077 10.5391C34.837 8.24348 31.0688 7.09565 26.8074 7.09565C23.2153 7.09565 19.9753 7.93043 17.0522 9.56522C14.1292 11.2348 11.84 13.4957 10.1848 16.3826C8.52958 19.2696 7.71958 22.4696 7.71958 25.9826ZM39.7323 11.8261C37.7601 13.6348 36.2105 15.7913 35.154 18.2609C34.0622 20.7304 33.534 23.3043 33.534 25.9826C33.534 28.6957 34.0622 31.2696 35.154 33.7391C36.2105 36.2435 37.7601 38.3652 39.7323 40.1739C41.7044 38.3652 43.2188 36.2435 44.3105 33.7391C45.3671 31.2696 45.9305 28.6957 45.9305 25.9826C45.9305 23.3043 45.3671 20.7304 44.3105 18.2609C43.2188 15.7913 41.7044 13.6348 39.7323 11.8261Z" fill="white"/>
<path d="M120.345 28.4174V3.75652C120.063 4.13913 119.359 5.0087 118.302 6.33043C117.246 7.68696 116.471 8.66087 116.049 9.21739C115.591 9.8087 114.851 10.7826 113.83 12.1391C112.809 13.5304 112.034 14.5739 111.541 15.3391C111.012 16.1043 110.308 17.1826 109.428 18.5043C108.547 19.8609 107.878 21.0087 107.42 21.913C106.927 22.8522 106.399 23.9652 105.8 25.2174C105.202 26.5043 104.744 27.6522 104.462 28.6957C104.145 29.7391 103.863 30.8174 103.652 31.9652C103.441 33.1478 103.335 34.2609 103.335 35.3043C103.335 36.3826 103.441 37.4609 103.652 38.5043C103.863 39.5826 104.215 40.6261 104.673 41.6696C105.131 42.713 105.8 43.5478 106.681 44.1739C107.561 44.8348 108.582 45.1478 109.745 45.1478C111.365 45.1478 112.914 44.5565 114.323 43.3391C115.732 42.1565 116.823 40.6609 117.669 38.8522C118.514 37.0783 119.148 35.2696 119.641 33.4261C120.099 31.5826 120.345 29.913 120.345 28.4174ZM94.7419 25.9826L76.0767 1.04348H85.0219L99.2146 20L113.513 1.04348H122.458V46.087C119.359 49.913 115.661 51.7913 111.4 51.7913C107.737 51.7913 104.92 50.6087 102.983 48.2435C101.046 45.8783 100.095 42.8522 100.095 39.1652C100.095 37.5652 100.271 35.8261 100.694 34.0174C101.116 32.2087 101.574 30.6087 102.067 29.2174C102.56 27.8261 103.335 26.1217 104.356 24.1391C105.342 22.1913 106.188 20.6609 106.822 19.5826C107.455 18.5043 108.406 16.9043 109.674 14.8174C110.942 12.7304 111.822 11.3043 112.28 10.5391L112.139 10.4C109.04 15.5826 105.166 21.5652 100.518 28.3478C99.7428 29.4957 98.1933 31.8261 95.8689 35.3391C93.5445 38.8522 91.5372 41.7739 89.9172 44.1043C88.2971 46.4696 86.6419 48.7304 85.0219 50.9217H76.0767L94.7419 25.9826Z" fill="white"/>
<path d="M129.29 1.04348H164.367C162.676 1.46087 160.916 2.08696 159.014 2.92174C157.112 3.75652 155.21 4.76522 153.309 6.01739C151.407 7.26957 149.681 8.5913 148.132 10.0522C146.582 11.513 145.349 13.113 144.363 14.9217C143.377 16.7304 142.919 18.5043 142.919 20.2783C142.919 22.2609 143.448 23.8609 144.539 25.113C145.631 26.3652 147.181 26.9913 149.153 26.9913C150.632 26.9913 152.006 26.6087 153.273 25.8435C154.506 25.0783 155.527 24.0696 156.302 22.8174C157.077 21.6 157.676 20.2783 158.098 18.8522C158.521 17.4261 158.732 16 158.732 14.6087V31.1304C156.196 33.0783 153.379 34.0522 150.28 34.0522C146.934 34.0522 144.363 33.0087 142.567 30.8522C140.771 28.6957 139.891 25.9478 139.891 22.5739C139.891 17.1478 142.286 12.3478 147.11 8.17391H136.51V43.7913H158.803V50.9217H129.29V1.04348Z" fill="white"/>
<path d="M165.423 1.04348H200.5C198.81 1.46087 197.049 2.08696 195.147 2.92174C193.245 3.75652 191.343 4.76522 189.442 6.01739C187.54 7.26957 185.814 8.5913 184.265 10.0522C182.715 11.513 181.483 13.113 180.496 14.9217C179.51 16.7304 179.053 18.5043 179.053 20.2783C179.053 22.2609 179.581 23.8609 180.673 25.113C181.764 26.3652 183.314 26.9913 185.286 26.9913C186.765 26.9913 188.139 26.6087 189.406 25.8435C190.639 25.0783 191.66 24.0696 192.435 22.8174C193.21 21.6 193.809 20.2783 194.231 18.8522C194.654 17.4261 194.865 16 194.865 14.6087V31.1304C192.33 33.0783 189.512 34.0522 186.413 34.0522C183.067 34.0522 180.496 33.0087 178.7 30.8522C176.904 28.6957 176.024 25.9478 176.024 22.5739C176.024 17.1478 178.419 12.3478 183.243 8.17391H172.643V43.7913H194.936V50.9217H165.423V1.04348Z" fill="white"/>
<path d="M12.673 95V93.318C11.397 94.478 9.686 95.203 7.772 95.203C3.741 95.203 0.609 92.042 0.609 88.127C0.609 84.212 3.741 81.051 7.772 81.051C9.686 81.051 11.397 81.776 12.673 82.936V74.7H15.167V95H12.673ZM3.074 88.127C3.074 90.766 5.22 92.912 7.772 92.912C10.324 92.912 12.441 90.766 12.441 88.127C12.441 85.459 10.324 83.342 7.772 83.342C5.22 83.342 3.074 85.459 3.074 88.127ZM24.7649 95.232C20.7629 95.232 17.5729 92.071 17.5729 88.098C17.5729 84.154 20.7919 80.964 24.7649 80.964C27.7519 80.964 30.2169 82.733 31.3479 85.459L21.4299 91.636C22.2999 92.506 23.5179 92.999 24.7649 92.999C26.7949 92.999 28.5639 92.071 29.8399 90.476L31.7249 91.955C30.0139 94.014 27.6069 95.232 24.7649 95.232ZM19.9509 88.069C19.9509 88.62 20.0089 89.113 20.2119 89.635L28.0709 84.821C27.6069 83.806 26.1859 83.168 24.7649 83.168C22.0969 83.168 19.9509 85.343 19.9509 88.069ZM39.227 95.377C37.139 95.377 35.515 94.942 34.384 94.101C33.398 93.347 32.847 92.274 32.789 91.027H35.167C35.225 91.694 35.805 92.999 39.227 92.999C41.46 92.999 42.62 92.361 42.62 91.056C42.62 89.838 41.924 89.461 38.821 88.997C37.545 88.823 36.327 88.649 35.254 88.156C33.311 87.373 32.992 85.865 32.992 84.908C32.992 82.182 35.515 80.819 38.56 80.819C40.329 80.819 41.779 81.138 42.794 81.747C43.896 82.385 44.505 83.342 44.563 84.502H42.185C42.069 83.69 40.648 83.197 38.56 83.197C36.849 83.197 35.486 83.748 35.515 84.966C35.544 85.952 36.472 86.271 39.169 86.677C40.474 86.851 41.837 87.025 42.939 87.576C44.476 88.301 45.201 89.432 45.201 90.998C45.201 93.115 43.664 95.377 39.227 95.377ZM53.0501 77.368C51.6871 77.368 50.5851 76.266 50.5851 74.874C50.5851 73.482 51.7161 72.38 53.0501 72.38C54.4421 72.38 55.5731 73.482 55.5731 74.874C55.5731 76.266 54.4711 77.368 53.0501 77.368ZM46.4961 84.386L51.8031 81.254H54.3551V92.622H59.1111V95H47.0761V92.622H51.8611V83.951L47.7141 86.445L46.4961 84.386ZM61.7514 101.757V99.379H70.7414C71.5534 99.379 72.1334 98.741 72.1334 98.074C72.1334 97.262 71.5244 96.827 70.7414 96.827H61.7514V93.695L65.4344 91.52L65.1154 91.433C62.9984 90.853 61.4034 88.939 61.4034 86.561C61.4034 83.487 63.9264 80.935 67.1164 80.935C68.7404 80.935 70.3354 81.689 71.4374 82.965L75.3814 80.558L76.6284 82.588L72.7714 84.966V86.561C72.7714 88.069 72.1624 89.461 71.0894 90.563C70.7704 90.853 70.4224 91.143 69.9294 91.404L64.7384 94.42H70.7994C72.9164 94.42 74.6854 95.986 74.6854 98.074C74.6854 100.046 72.9164 101.757 70.7994 101.757H61.7514ZM63.9264 86.561C63.9264 88.359 65.3474 89.78 67.1164 89.78C68.8564 89.78 70.2484 88.359 70.2484 86.561C70.2484 85.981 70.0744 85.401 69.8134 84.908C69.2624 83.951 68.2764 83.313 67.1164 83.313C65.3474 83.313 63.9264 84.763 63.9264 86.561ZM78.546 95V81.254H81.011V82.907C81.678 82.037 83.389 81.051 84.926 81.051C88.464 81.051 90.958 83.545 90.958 87.025V95H88.464V87.025C88.464 84.879 86.898 83.313 84.723 83.313C82.635 83.313 81.011 84.879 81.011 87.779V95H78.546ZM100.894 90.853C100.894 88.214 102.953 86.706 105.65 86.706H109.014C109.507 86.706 110.348 86.619 110.783 86.242V86.184C110.783 83.922 108.753 83.4 106.868 83.4C105.099 83.4 103.736 84.067 102.315 85.14L100.894 83.255C102.75 81.834 104.577 81.051 106.897 81.051C108.637 81.051 110.522 81.486 111.74 82.588C112.639 83.487 113.161 84.734 113.161 86.068V95H110.783V93.434C109.739 94.391 108.376 95.203 106.027 95.203C103.243 95.203 100.894 93.55 100.894 90.853ZM103.33 90.824C103.33 92.071 104.577 92.912 106.143 92.912C108.782 92.912 110.609 91.549 110.783 88.765C110.232 88.939 109.594 88.997 109.043 88.997H105.766C104.461 88.997 103.33 89.519 103.33 90.824ZM116.524 95V81.254H118.989V82.907C119.656 82.037 121.367 81.051 122.904 81.051C126.442 81.051 128.936 83.545 128.936 87.025V95H126.442V87.025C126.442 84.879 124.876 83.313 122.701 83.313C120.613 83.313 118.989 84.879 118.989 87.779V95H116.524ZM143.173 95V93.318C141.897 94.478 140.186 95.203 138.272 95.203C134.241 95.203 131.109 92.042 131.109 88.127C131.109 84.212 134.241 81.051 138.272 81.051C140.186 81.051 141.897 81.776 143.173 82.936V74.7H145.667V95H143.173ZM133.574 88.127C133.574 90.766 135.72 92.912 138.272 92.912C140.824 92.912 142.941 90.766 142.941 88.127C142.941 85.459 140.824 83.342 138.272 83.342C135.72 83.342 133.574 85.459 133.574 88.127ZM167.783 95V93.318C166.507 94.478 164.796 95.203 162.882 95.203C158.851 95.203 155.719 92.042 155.719 88.127C155.719 84.212 158.851 81.051 162.882 81.051C164.796 81.051 166.507 81.776 167.783 82.936V74.7H170.277V95H167.783ZM158.184 88.127C158.184 90.766 160.33 92.912 162.882 92.912C165.434 92.912 167.551 90.766 167.551 88.127C167.551 85.459 165.434 83.342 162.882 83.342C160.33 83.342 158.184 85.459 158.184 88.127ZM179.875 95.232C175.873 95.232 172.683 92.071 172.683 88.098C172.683 84.154 175.902 80.964 179.875 80.964C182.862 80.964 185.327 82.733 186.458 85.459L176.54 91.636C177.41 92.506 178.628 92.999 179.875 92.999C181.905 92.999 183.674 92.071 184.95 90.476L186.835 91.955C185.124 94.014 182.717 95.232 179.875 95.232ZM175.061 88.069C175.061 88.62 175.119 89.113 175.322 89.635L183.181 84.821C182.717 83.806 181.296 83.168 179.875 83.168C177.207 83.168 175.061 85.343 175.061 88.069ZM192.278 95L187.29 81.254H189.929L193.583 91.607L197.266 81.254H199.876L194.888 95H192.278Z" fill="white"/>
<path d="M0 65H201V63H0V65Z" fill="white" mask="url(#path-2-inside-1_22_3)"/>
</svg>
